<?xml version="1.0" encoding="utf-8"?>
<!-- Generator: Adobe Illustrator 19.0.0, SVG Export Plug-In . SVG Version: 6.00 Build 0)  -->
<svg version="1.1" xmlns="http://www.w3.org/2000/svg" xmlns:xlink="http://www.w3.org/1999/xlink" x="0px" y="0px"
	 viewBox="0 0 1920 1080" style="enable-background:new 0 0 1920 1080;" xml:space="preserve">
<style type="text/css">
	.st0{clip-path:url(#XMLID_68_);}
	.st1{opacity:0.5;}
	.st2{fill:#E6CB47;}
	.st3{fill:#204F79;}
	.st4{fill:#B3B3B3;}
</style>
<g id="Layer_1">
	<g id="XMLID_21_">
		<defs>
			<rect id="XMLID_343_" x="0" width="1920" height="1080"/>
		</defs>
		<clipPath id="XMLID_68_">
			<use xlink:href="#XMLID_343_"  style="overflow:visible;"/>
		</clipPath>
		<g id="XMLID_880_" class="st0">
			<g id="XMLID_633_" class="st1">
				<path id="XMLID_876_" class="st2" d="M1279,280.1c-23.4,0-42.4,19-42.4,42.4C1260,322.5,1279,303.5,1279,280.1z"/>
				<path id="XMLID_875_" class="st2" d="M1914.6,401.2c0-15.6-12.7-28.3-28.3-28.3C1886.3,388.5,1899,401.2,1914.6,401.2z"/>
				<path id="XMLID_874_" class="st3" d="M1239.2,325.5c0,20.6,16.7,37.3,37.3,37.3C1276.4,342.2,1259.7,325.5,1239.2,325.5z"/>
				<path id="XMLID_873_" class="st4" d="M1787.6,359.8c0-17.3-14-31.3-31.3-31.3C1756.3,345.8,1770.3,359.8,1787.6,359.8z"/>
				<path id="XMLID_872_" class="st3" d="M1717.3,955.9c13,0,23.6-10.6,23.6-23.6C1727.9,932.3,1717.3,942.9,1717.3,955.9z"/>
				<path id="XMLID_871_" class="st3" d="M1752.2,924.4c0,21.8,17.6,39.4,39.4,39.4C1791.6,942,1774,924.4,1752.2,924.4z"/>
				<path id="XMLID_870_" class="st4" d="M1628.6,800.8c0,16.3,13.2,29.6,29.6,29.6C1658.2,814,1644.9,800.8,1628.6,800.8z"/>
				<path id="XMLID_869_" class="st4" d="M1277.5,195.9c-21.8,0-39.4,17.7-39.4,39.4C1259.9,235.3,1277.5,217.7,1277.5,195.9z"/>
				<path id="XMLID_868_" class="st3" d="M1784.8,185.6c0-14.2-11.5-25.7-25.7-25.7C1759.1,174.1,1770.6,185.6,1784.8,185.6z"/>
				<path id="XMLID_867_" class="st2" d="M2002.7,242c-18.2,0-33,14.8-33,33C1987.9,275,2002.7,260.2,2002.7,242z"/>
				<path id="XMLID_866_" class="st2" d="M1655.8,74.6c-13.7,0-24.9,11.1-24.9,24.9C1644.7,99.5,1655.8,88.4,1655.8,74.6z"/>
				<path id="XMLID_865_" class="st3" d="M1926.4,575.4c18.7,0,33.8-15.2,33.8-33.9C1941.6,541.5,1926.4,556.7,1926.4,575.4z"/>
				<path id="XMLID_864_" class="st3" d="M1620.5,624.2c-22,0-39.8,17.8-39.8,39.9C1602.6,664.1,1620.5,646.2,1620.5,624.2z"/>
				<path id="XMLID_863_" class="st4" d="M1882.1,791.1c20.4,0,36.8-16.5,36.8-36.9C1898.5,754.3,1882.1,770.8,1882.1,791.1z"/>
				<path id="XMLID_862_" class="st3" d="M1873.5,714c-17.5,0-31.7,14.2-31.7,31.7C1859.3,745.7,1873.5,731.5,1873.5,714z"/>
				<path id="XMLID_861_" class="st2" d="M1276.6,368.2c-20.8,0-37.7,16.9-37.7,37.7C1259.8,405.9,1276.6,389,1276.6,368.2z"/>
				<path id="XMLID_860_" class="st2" d="M1829.8,573.4c0-16.6-13.4-30-30-30C1799.8,560,1813.2,573.4,1829.8,573.4z"/>
				<path id="XMLID_859_" class="st4" d="M1232.6,69.3c-19.6,0-35.6,15.9-35.6,35.6C1216.7,104.8,1232.6,88.9,1232.6,69.3z"/>
				<path id="XMLID_858_" class="st3" d="M1753.5,319.7c20.4,0,36.8-16.5,36.8-36.9C1770,282.9,1753.5,299.4,1753.5,319.7z"/>
				<path id="XMLID_857_" class="st3" d="M1526.2,355.5c0-12.5-10.2-22.7-22.7-22.7C1503.5,345.4,1513.7,355.5,1526.2,355.5z"/>
				<path id="XMLID_856_" class="st4" d="M1578.7,322.3c0-23.2-18.8-42-42-42C1536.7,303.5,1555.5,322.3,1578.7,322.3z"/>
				<path id="XMLID_855_" class="st3" d="M1585.8,1015c0,16.3,13.2,29.6,29.6,29.6C1615.3,1028.3,1602.1,1015,1585.8,1015z"/>
				<path id="XMLID_854_" class="st4" d="M1632.7,976.2c0,11.8,9.6,21.4,21.4,21.4C1654.1,985.8,1644.5,976.2,1632.7,976.2z"/>
				<path id="XMLID_853_" class="st3" d="M1746,327.2c-18.7,0-33.8,15.2-33.8,33.9C1730.9,361.1,1746,345.9,1746,327.2z"/>
				<path id="XMLID_852_" class="st4" d="M1671,316.5c16.8,0,30.4-13.6,30.4-30.4C1684.7,286.1,1671,299.7,1671,316.5z"/>
				<path id="XMLID_851_" class="st2" d="M1747.3,319.5c0-20.1-16.3-36.4-36.4-36.4C1710.9,303.2,1727.2,319.5,1747.3,319.5z"/>
				<path id="XMLID_850_" class="st4" d="M1414.6,315.9c16.1,0,29.1-13,29.1-29.1C1427.7,286.7,1414.6,299.8,1414.6,315.9z"/>
				<path id="XMLID_849_" class="st3" d="M1955.1,527.4c0-13-10.6-23.6-23.6-23.6C1931.5,516.8,1942.1,527.4,1955.1,527.4z"/>
				<path id="XMLID_848_" class="st3" d="M1969.7,532.1c18.2,0,33-14.8,33-33C1984.4,499.1,1969.7,513.8,1969.7,532.1z"/>
				<path id="XMLID_847_" class="st3" d="M1741.7,228.3c0-14-11.3-25.3-25.3-25.3C1716.5,216.9,1727.8,228.3,1741.7,228.3z"/>
				<path id="XMLID_846_" class="st4" d="M1704.9,277.1c0-20.6-16.7-37.3-37.3-37.3C1667.6,260.4,1684.3,277.1,1704.9,277.1z"/>
				<path id="XMLID_845_" class="st3" d="M1878.6,450.9c0-23.2-18.8-42-42-42C1836.6,432.1,1855.4,450.9,1878.6,450.9z"/>
				<path id="XMLID_844_" class="st3" d="M1272.8,114.9c-16.6,0-30,13.4-30,30C1259.4,144.9,1272.8,131.5,1272.8,114.9z"/>
				<path id="XMLID_843_" class="st2" d="M1242.2,157.1c0,17.3,14,31.3,31.3,31.3C1273.4,171.1,1259.4,157.1,1242.2,157.1z"/>
				<path id="XMLID_842_" class="st3" d="M1912.3,332.4c-13,0-23.6,10.6-23.6,23.6C1901.7,356,1912.3,345.4,1912.3,332.4z"/>
				<path id="XMLID_841_" class="st4" d="M1827.4,485.4c0-14-11.3-25.3-25.3-25.3C1802.1,474,1813.5,485.4,1827.4,485.4z"/>
				<path id="XMLID_840_" class="st2" d="M1540.8,1046.7c18.7,0,33.8-15.2,33.8-33.9C1555.9,1012.9,1540.8,1028,1540.8,1046.7z"/>
				<path id="XMLID_839_" class="st3" d="M1656.3,417c-14.2,0-25.7,11.5-25.7,25.7C1644.7,442.7,1656.3,431.2,1656.3,417z"/>
				<path id="XMLID_838_" class="st4" d="M1674.7,484.3c12.8,0,23.1-10.4,23.1-23.1C1685,461.2,1674.7,471.5,1674.7,484.3z"/>
				<path id="XMLID_837_" class="st3" d="M1797.9,712.9c0,18.7,15.2,33.9,33.8,33.9C1831.7,728.1,1816.6,712.9,1797.9,712.9z"/>
				<path id="XMLID_836_" class="st3" d="M1964.3,279.5c0-23.2-18.8-42-42-42C1922.3,260.7,1941.1,279.5,1964.3,279.5z"/>
				<path id="XMLID_835_" class="st2" d="M1917.2,318c0-18.5-15-33.4-33.4-33.4C1883.8,303.1,1898.7,318,1917.2,318z"/>
				<path id="XMLID_834_" class="st3" d="M1748.6,63.7c0-21.5-17.5-39-39-39C1709.6,46.2,1727.1,63.7,1748.6,63.7z"/>
				<path id="XMLID_833_" class="st2" d="M1759.9,227.6c13.3,0,24-10.7,24-24C1770.7,203.6,1759.9,214.4,1759.9,227.6z"/>
				<path id="XMLID_832_" class="st3" d="M1790.4,276.9c0-20.4-16.5-36.9-36.8-36.9C1753.5,260.4,1770,276.9,1790.4,276.9z"/>
				<path id="XMLID_831_" class="st3" d="M1184.2,270.7c0-13.5-10.9-24.4-24.4-24.4C1159.8,259.7,1170.7,270.7,1184.2,270.7z"/>
				<path id="XMLID_830_" class="st2" d="M1660.5,489.9c0-18.9-15.3-34.3-34.3-34.3C1626.3,474.5,1641.6,489.9,1660.5,489.9z"/>
				<path id="XMLID_829_" class="st3" d="M1956.8,357.7c0-14.9-12.1-27-27-27C1929.8,345.6,1941.9,357.7,1956.8,357.7z"/>
				<path id="XMLID_828_" class="st3" d="M2003.3,327c-18.9,0-34.3,15.3-34.3,34.3C1988,361.3,2003.3,346,2003.3,327z"/>
				<path id="XMLID_827_" class="st4" d="M1924.5,320.2c20.8,0,37.7-16.9,37.7-37.7C1941.3,282.5,1924.5,299.3,1924.5,320.2z"/>
				<path id="XMLID_826_" class="st3" d="M1072.8,229.1c14.9,0,27-12.1,27-27C1084.9,202.1,1072.8,214.2,1072.8,229.1z"/>
				<path id="XMLID_825_" class="st3" d="M2000.5,230c0-15.9-12.9-28.7-28.7-28.7C1971.8,217.1,1984.7,230,2000.5,230z"/>
				<path id="XMLID_824_" class="st3" d="M1587.9,674.3c0,14,11.3,25.3,25.3,25.3C1613.2,685.7,1601.9,674.3,1587.9,674.3z"/>
				<path id="XMLID_823_" class="st2" d="M1569.9,674.8c-13.5,0-24.4,10.9-24.4,24.4C1559,699.2,1569.9,688.3,1569.9,674.8z"/>
				<path id="XMLID_822_" class="st4" d="M1889.8,547.7c0,11.8,9.6,21.4,21.4,21.4C1911.2,557.3,1901.6,547.7,1889.8,547.7z"/>
				<path id="XMLID_821_" class="st3" d="M1703.2,532.5c0-18.7-15.2-33.9-33.8-33.9C1669.3,517.3,1684.5,532.5,1703.2,532.5z"/>
				<path id="XMLID_820_" class="st2" d="M1674.5,227.4c13,0,23.6-10.6,23.6-23.6C1685,203.8,1674.5,214.4,1674.5,227.4z"/>
				<path id="XMLID_819_" class="st3" d="M1397,590.6c-11.8,0-21.4,9.6-21.4,21.4C1387.4,612,1397,602.4,1397,590.6z"/>
				<path id="XMLID_818_" class="st4" d="M1750.5,408.4c0-23.7-19.2-42.9-42.8-42.9C1707.7,389.3,1726.9,408.4,1750.5,408.4z"/>
				<path id="XMLID_817_" class="st3" d="M1674.9,398.4c12.5,0,22.7-10.2,22.7-22.7C1685.1,375.7,1674.9,385.8,1674.9,398.4z"/>
				<path id="XMLID_816_" class="st4" d="M1703.4,447c0-18.9-15.3-34.3-34.3-34.3C1669.1,431.7,1684.5,447,1703.4,447z"/>
				<path id="XMLID_815_" class="st3" d="M1759.5,760.3c0,13.7,11.1,24.9,24.9,24.9C1784.4,771.4,1773.2,760.3,1759.5,760.3z"/>
				<path id="XMLID_814_" class="st3" d="M1705.5,710.6c-21.3,0-38.6,17.3-38.6,38.6C1688.3,749.1,1705.5,731.8,1705.5,710.6z"/>
				<path id="XMLID_813_" class="st3" d="M1846.9,933.4c0,11.8,9.6,21.4,21.4,21.4C1868.3,943,1858.7,933.4,1846.9,933.4z"/>
				<path id="XMLID_812_" class="st2" d="M1884.2,617.6c18,0,32.6-14.6,32.6-32.6C1898.8,585,1884.2,599.6,1884.2,617.6z"/>
				<path id="XMLID_811_" class="st4" d="M1932.2,55.3c12.3,0,22.3-10,22.3-22.3C1942.2,33.1,1932.2,43,1932.2,55.3z"/>
				<path id="XMLID_810_" class="st2" d="M1571,502.3c-14.7,0-26.6,11.9-26.6,26.6C1559.1,528.9,1571,517,1571,502.3z"/>
				<path id="XMLID_809_" class="st3" d="M1801.1,700.7c15.1,0,27.4-12.3,27.4-27.4C1813.4,673.3,1801.1,685.5,1801.1,700.7z"/>
				<path id="XMLID_808_" class="st3" d="M1448.2,277.5c0-21.1-17.1-38.1-38.1-38.1C1410.1,260.5,1427.2,277.5,1448.2,277.5z"/>
				<path id="XMLID_807_" class="st3" d="M1887.2,802.3c0,14.7,11.9,26.6,26.6,26.6C1913.8,814.1,1901.9,802.3,1887.2,802.3z"/>
				<path id="XMLID_804_" class="st3" d="M1830.6,231.5c0-17.5-14.2-31.7-31.7-31.7C1798.9,217.3,1813.1,231.5,1830.6,231.5z"/>
				<path id="XMLID_803_" class="st3" d="M1837.9,235.3c21.8,0,39.4-17.7,39.4-39.4C1855.6,195.9,1837.9,213.5,1837.9,235.3z"/>
				<path id="XMLID_802_" class="st3" d="M1752,406.9c22,0,39.8-17.8,39.8-39.9C1769.9,367.1,1752,384.9,1752,406.9z"/>
				<path id="XMLID_801_" class="st3" d="M1830.2,414.4c-17,0-30.8,13.8-30.8,30.9C1816.4,445.3,1830.2,431.5,1830.2,414.4z"/>
				<path id="XMLID_800_" class="st4" d="M1744.3,157.5c-16.8,0-30.4,13.6-30.4,30.4C1730.7,188,1744.3,174.3,1744.3,157.5z"/>
				<path id="XMLID_799_" class="st3" d="M1673.6,142.5c14,0,25.3-11.3,25.3-25.3C1684.9,117.3,1673.6,128.6,1673.6,142.5z"/>
				<path id="XMLID_798_" class="st2" d="M1707.5,194c0-23.4-19-42.4-42.4-42.4C1665,175,1684,194,1707.5,194z"/>
				<path id="XMLID_797_" class="st4" d="M1974.6,612.8c12.8,0,23.1-10.4,23.1-23.1C1985,589.7,1974.6,600.1,1974.6,612.8z"/>
				<path id="XMLID_796_" class="st2" d="M1885.3,886c0,16.8,13.6,30.4,30.4,30.4C1915.7,899.7,1902.1,886,1885.3,886z"/>
				<path id="XMLID_795_" class="st3" d="M1885.5,873.4c16.6,0,30-13.4,30-30C1898.9,843.4,1885.5,856.8,1885.5,873.4z"/>
				<path id="XMLID_794_" class="st3" d="M1761,569.4c12.1,0,21.9-9.8,21.9-21.9C1770.8,547.5,1761,557.3,1761,569.4z"/>
				<path id="XMLID_793_" class="st3" d="M1749.4,495.2c-22.5,0-40.7,18.2-40.7,40.7C1731.2,535.9,1749.4,517.7,1749.4,495.2z"/>
				<path id="XMLID_792_" class="st4" d="M1792.3,535.9c0-22.5-18.2-40.7-40.7-40.7C1751.6,517.7,1769.8,535.9,1792.3,535.9z"/>
				<path id="XMLID_791_" class="st3" d="M1887.6,717c0,14.2,11.5,25.7,25.7,25.7C1913.3,728.5,1901.8,717,1887.6,717z"/>
				<path id="XMLID_790_" class="st2" d="M1707.7,879.8c0,23.7,19.2,42.9,42.8,42.9C1750.5,899,1731.3,879.8,1707.7,879.8z"/>
				<path id="XMLID_789_" class="st3" d="M1717.1,870.4c13.3,0,24-10.7,24-24C1727.8,846.4,1717.1,857.1,1717.1,870.4z"/>
				<path id="XMLID_788_" class="st2" d="M1534.1,710.6c-21.3,0-38.6,17.3-38.6,38.6C1516.9,749.1,1534.1,731.8,1534.1,710.6z"/>
				<path id="XMLID_787_" class="st2" d="M1502.2,674.3c0,14,11.3,25.3,25.3,25.3C1527.5,685.7,1516.2,674.3,1502.2,674.3z"/>
				<path id="XMLID_786_" class="st3" d="M1589.6,847.5c0,12.1,9.8,21.9,21.9,21.9C1611.5,857.2,1601.7,847.5,1589.6,847.5z"/>
				<path id="XMLID_785_" class="st3" d="M1316.3,328.5c-17.3,0-31.3,14-31.3,31.3C1302.3,359.8,1316.3,345.8,1316.3,328.5z"/>
				<path id="XMLID_784_" class="st4" d="M1318.6,405c0-19.9-16.1-36-36-36C1282.6,388.9,1298.8,405,1318.6,405z"/>
				<path id="XMLID_783_" class="st3" d="M1413.1,231.7c17.7,0,32.1-14.4,32.1-32.1C1427.5,199.5,1413.1,213.9,1413.1,231.7z"/>
				<path id="XMLID_782_" class="st2" d="M1741.3,74.8c-13.5,0-24.4,10.9-24.4,24.4C1730.4,99.3,1741.3,88.3,1741.3,74.8z"/>
				<path id="XMLID_781_" class="st2" d="M1758,143.8c15.4,0,27.8-12.5,27.8-27.9C1770.5,116,1758,128.5,1758,143.8z"/>
				<path id="XMLID_780_" class="st3" d="M1750.3,151.1c0-23.4-19-42.4-42.4-42.4C1707.9,132.1,1726.9,151.1,1750.3,151.1z"/>
				<path id="XMLID_779_" class="st2" d="M1482.7,419.2c-11.8,0-21.4,9.6-21.4,21.4C1473.1,440.6,1482.7,431,1482.7,419.2z"/>
				<path id="XMLID_778_" class="st2" d="M2007.2,151.8c-23.2,0-42,18.8-42,42C1988.4,193.8,2007.2,175,2007.2,151.8z"/>
				<path id="XMLID_777_" class="st2" d="M1581.9,320c20.6,0,37.3-16.7,37.3-37.3C1598.6,282.7,1581.9,299.4,1581.9,320z"/>
				<path id="XMLID_776_" class="st3" d="M1670.8,671.6c0,17,13.8,30.9,30.8,30.9C1701.7,685.4,1687.9,671.6,1670.8,671.6z"/>
				<path id="XMLID_775_" class="st4" d="M1190.6,105.7c0-20.6-16.7-37.3-37.3-37.3C1153.3,89,1170,105.7,1190.6,105.7z"/>
				<path id="XMLID_774_" class="st3" d="M1147.8,68.4c-20.6,0-37.3,16.7-37.3,37.3C1131.1,105.7,1147.8,89,1147.8,68.4z"/>
				<path id="XMLID_773_" class="st4" d="M1316.5,317.2c0-17.5-14.2-31.7-31.7-31.7C1284.8,303,1299,317.2,1316.5,317.2z"/>
				<path id="XMLID_772_" class="st2" d="M1063.8,64.6c0-22.5-18.2-40.7-40.7-40.7C1023.1,46.3,1041.3,64.6,1063.8,64.6z"/>
				<path id="XMLID_771_" class="st3" d="M1574,242.2c-18,0-32.6,14.6-32.6,32.6C1559.4,274.7,1574,260.2,1574,242.2z"/>
				<path id="XMLID_770_" class="st4" d="M1576.8,234.7c0-21.1-17.1-38.1-38.1-38.1C1538.6,217.6,1555.7,234.7,1576.8,234.7z"/>
				<path id="XMLID_769_" class="st3" d="M1502.4,228c13.7,0,24.9-11.1,24.9-24.9C1513.6,203.2,1502.4,214.3,1502.4,228z"/>
				<path id="XMLID_768_" class="st2" d="M1707.7,708.4c0,23.7,19.2,42.9,42.8,42.9C1750.5,727.6,1731.3,708.4,1707.7,708.4z"/>
				<path id="XMLID_767_" class="st3" d="M1793.4,708.4c-23.7,0-42.8,19.2-42.8,42.9C1774.2,751.3,1793.4,732.1,1793.4,708.4z"/>
				<path id="XMLID_766_" class="st3" d="M1759.9,675c0,13.3,10.7,24,24,24C1783.9,685.7,1773.2,675,1759.9,675z"/>
				<path id="XMLID_765_" class="st3" d="M1714.1,702c16.6,0,30-13.4,30-30C1727.5,672,1714.1,685.4,1714.1,702z"/>
				<path id="XMLID_764_" class="st3" d="M1743.2,486.9c0-15.6-12.7-28.3-28.3-28.3C1715,474.2,1727.6,486.9,1743.2,486.9z"/>
				<path id="XMLID_763_" class="st3" d="M1749.2,409.7c-22.2,0-40.3,18-40.3,40.3C1731.2,450,1749.2,432,1749.2,409.7z"/>
				<path id="XMLID_762_" class="st3" d="M1791.2,449.2c0-21.3-17.3-38.6-38.6-38.6C1752.7,431.9,1769.9,449.2,1791.2,449.2z"/>
				<path id="XMLID_761_" class="st3" d="M1757.8,1015.7c0,15.6,12.7,28.3,28.3,28.3C1786.1,1028.3,1773.4,1015.7,1757.8,1015.7z"/>
				<path id="XMLID_760_" class="st2" d="M1194.7,278.6c22.2,0,40.3-18,40.3-40.3C1212.7,238.3,1194.7,256.4,1194.7,278.6z"/>
				<path id="XMLID_759_" class="st4" d="M1503.3,141.5c12.8,0,23.1-10.4,23.1-23.1C1513.7,118.3,1503.3,128.7,1503.3,141.5z"/>
				<path id="XMLID_758_" class="st3" d="M1571,159.5c-14.7,0-26.6,11.9-26.6,26.6C1559.1,186,1571,174.1,1571,159.5z"/>
				<path id="XMLID_757_" class="st2" d="M1529.4,187.3c0-16.1-13-29.1-29.1-29.1C1500.3,174.3,1513.3,187.3,1529.4,187.3z"/>
				<path id="XMLID_756_" class="st3" d="M1788,799.5c-17.7,0-32.1,14.4-32.1,32.1C1773.6,831.6,1788,817.2,1788,799.5z"/>
				<path id="XMLID_755_" class="st2" d="M1799.8,886.2c0,16.6,13.4,30,30,30C1829.8,899.7,1816.4,886.2,1799.8,886.2z"/>
				<path id="XMLID_754_" class="st3" d="M1875.6,883.2c-19.9,0-36,16.1-36,36C1859.5,919.2,1875.6,903.1,1875.6,883.2z"/>
				<path id="XMLID_753_" class="st3" d="M1846.3,847c0,12.5,10.2,22.7,22.7,22.7C1869,857.2,1858.8,847,1846.3,847z"/>
				<path id="XMLID_752_" class="st2" d="M1794,879.2c23,0,41.6-18.6,41.6-41.6C1812.6,837.6,1794,856.2,1794,879.2z"/>
				<path id="XMLID_751_" class="st3" d="M1965.8,1050.2c22.5,0,40.7-18.2,40.7-40.7C1984,1009.4,1965.8,1027.7,1965.8,1050.2z"/>
				<path id="XMLID_750_" class="st2" d="M1973.7,974.5c0,13.7,11.1,24.9,24.9,24.9C1998.6,985.6,1987.5,974.5,1973.7,974.5z"/>
				<path id="XMLID_749_" class="st2" d="M1105.8,192.3c0-21.5-17.5-39-39-39C1066.8,174.8,1084.3,192.3,1105.8,192.3z"/>
				<path id="XMLID_748_" class="st4" d="M1143.1,143.8c0-15.4-12.5-27.9-27.8-27.9C1115.2,131.4,1127.7,143.8,1143.1,143.8z"/>
				<path id="XMLID_747_" class="st4" d="M1244.1,57.9c15.1,0,27.4-12.3,27.4-27.4C1256.4,30.5,1244.1,42.8,1244.1,57.9z"/>
				<path id="XMLID_746_" class="st2" d="M1834.9,64.3c0-22.2-18-40.3-40.3-40.3C1794.6,46.3,1812.7,64.3,1834.9,64.3z"/>
				<path id="XMLID_745_" class="st2" d="M1760.4,55.8c12.8,0,23.1-10.4,23.1-23.1C1770.7,32.6,1760.4,43,1760.4,55.8z"/>
				<path id="XMLID_744_" class="st3" d="M1793.1,108.3c0-23.4-19-42.4-42.4-42.4C1750.7,89.3,1769.7,108.3,1793.1,108.3z"/>
				<path id="XMLID_743_" class="st4" d="M1575.5,412.1c-19.6,0-35.6,15.9-35.6,35.6C1559.6,447.7,1575.5,431.7,1575.5,412.1z"/>
				<path id="XMLID_742_" class="st2" d="M1569.9,484.9c0-13.5-10.9-24.4-24.4-24.4C1545.5,474,1556.4,484.9,1569.9,484.9z"/>
				<path id="XMLID_741_" class="st2" d="M1397.9,75.5c-12.8,0-23.1,10.4-23.1,23.1C1387.5,98.6,1397.9,88.3,1397.9,75.5z"/>
				<path id="XMLID_740_" class="st4" d="M1402.6,146.2c0-18-14.6-32.6-32.6-32.6C1370,131.6,1384.6,146.2,1402.6,146.2z"/>
				<path id="XMLID_739_" class="st4" d="M1230.5,145.5c0-17.3-14-31.3-31.3-31.3C1199.2,131.5,1213.2,145.5,1230.5,145.5z"/>
				<path id="XMLID_738_" class="st3" d="M1198.3,189.3c18.2,0,33-14.8,33-33C1213.1,156.3,1198.3,171,1198.3,189.3z"/>
				<path id="XMLID_737_" class="st2" d="M1157.4,144.5c16.1,0,29.1-13,29.1-29.1C1170.5,115.3,1157.4,128.4,1157.4,144.5z"/>
				<path id="XMLID_736_" class="st2" d="M1797.4,618.6c19.2,0,34.7-15.5,34.7-34.7C1813,583.9,1797.4,599.5,1797.4,618.6z"/>
				<path id="XMLID_735_" class="st3" d="M1105.8,278c0-21.5-17.5-39-39-39C1066.8,260.5,1084.3,278,1105.8,278z"/>
				<path id="XMLID_734_" class="st3" d="M1845.4,56.4c13.5,0,24.4-10.9,24.4-24.4C1856.4,32,1845.4,42.9,1845.4,56.4z"/>
				<path id="XMLID_733_" class="st2" d="M2001.8,71.4c-17.3,0-31.3,14-31.3,31.3C1987.8,102.7,2001.8,88.7,2001.8,71.4z"/>
				<path id="XMLID_732_" class="st3" d="M1997.3,141c0-12.3-10-22.3-22.3-22.3C1975,131.1,1985,141,1997.3,141z"/>
				<path id="XMLID_731_" class="st3" d="M1965.8,793c22.5,0,40.7-18.2,40.7-40.7C1984,752.3,1965.8,770.6,1965.8,793z"/>
				<path id="XMLID_730_" class="st2" d="M1968.6,712.3c0,19.4,15.7,35.1,35.1,35.1C2003.7,728,1988,712.3,1968.6,712.3z"/>
				<path id="XMLID_729_" class="st2" d="M1783.5,632.6c-12.8,0-23.1,10.4-23.1,23.1C1773.1,655.7,1783.5,645.3,1783.5,632.6z"/>
				<path id="XMLID_728_" class="st4" d="M1717.5,632.6c0,12.8,10.4,23.1,23.1,23.1C1740.7,642.9,1730.3,632.6,1717.5,632.6z"/>
				<path id="XMLID_727_" class="st4" d="M1289.5,98.2c12.3,0,22.3-10,22.3-22.3C1299.5,75.9,1289.5,85.9,1289.5,98.2z"/>
				<path id="XMLID_726_" class="st2" d="M1357.4,101c0-15.4-12.5-27.9-27.8-27.9C1329.6,88.5,1342,101,1357.4,101z"/>
				<path id="XMLID_725_" class="st3" d="M1320.6,149.8c0-22-17.8-39.9-39.8-39.9C1280.7,132,1298.6,149.8,1320.6,149.8z"/>
				<path id="XMLID_724_" class="st3" d="M1327,146.4c18.2,0,33-14.8,33-33C1341.8,113.4,1327,128.2,1327,146.4z"/>
				<path id="XMLID_723_" class="st3" d="M1401.3,243.5c-16.6,0-30,13.4-30,30C1387.9,273.5,1401.3,260,1401.3,243.5z"/>
				<path id="XMLID_722_" class="st2" d="M1399.6,228.9c0-14.7-11.9-26.6-26.6-26.6C1373,217,1384.9,228.9,1399.6,228.9z"/>
				<path id="XMLID_721_" class="st3" d="M1329.8,244.7c0,15.1,12.3,27.4,27.4,27.4C1357.2,257,1344.9,244.7,1329.8,244.7z"/>
				<path id="XMLID_720_" class="st3" d="M1399,417.2c-14,0-25.3,11.3-25.3,25.3C1387.7,442.5,1399,431.2,1399,417.2z"/>
				<path id="XMLID_719_" class="st3" d="M1496.7,583.1c0,20.1,16.3,36.4,36.4,36.4C1533.1,599.4,1516.8,583.1,1496.7,583.1z"/>
				<path id="XMLID_718_" class="st2" d="M1483.4,312.7c0-12.5-10.2-22.7-22.7-22.7C1460.7,302.5,1470.8,312.7,1483.4,312.7z"/>
				<path id="XMLID_717_" class="st4" d="M1487.9,242.6c-17.5,0-31.7,14.2-31.7,31.7C1473.7,274.3,1487.9,260.1,1487.9,242.6z"/>
				<path id="XMLID_716_" class="st3" d="M1973.3,956.9c14.2,0,25.7-11.5,25.7-25.7C1984.8,931.2,1973.3,942.7,1973.3,956.9z"/>
				<path id="XMLID_715_" class="st3" d="M1954.2,890.3c-12.1,0-21.9,9.8-21.9,21.9C1944.5,912.2,1954.2,902.4,1954.2,890.3z"/>
				<path id="XMLID_714_" class="st4" d="M1237.4,409.5c0,22.5,18.2,40.7,40.7,40.7C1278.1,427.7,1259.9,409.5,1237.4,409.5z"/>
				<path id="XMLID_713_" class="st3" d="M1355.1,461.2c-12.8,0-23.1,10.4-23.1,23.1C1344.7,484.3,1355.1,473.9,1355.1,461.2z"/>
				<path id="XMLID_712_" class="st2" d="M1443.1,544.5c-15.4,0-27.8,12.5-27.8,27.9C1430.6,572.4,1443.1,559.9,1443.1,544.5z"/>
				<path id="XMLID_711_" class="st3" d="M1417.4,589.5c0,13,10.6,23.6,23.6,23.6C1441,600,1430.4,589.5,1417.4,589.5z"/>
				<path id="XMLID_710_" class="st4" d="M1489.2,584.1c-18.9,0-34.3,15.3-34.3,34.3C1473.8,618.4,1489.2,603.1,1489.2,584.1z"/>
				<path id="XMLID_709_" class="st3" d="M1621.3,107.8c0-23-18.6-41.6-41.6-41.6C1579.8,89.2,1598.4,107.8,1621.3,107.8z"/>
				<path id="XMLID_708_" class="st3" d="M1881,963.6c21.5,0,39-17.5,39-39C1898.4,924.6,1881,942.1,1881,963.6z"/>
				<path id="XMLID_707_" class="st2" d="M1931.1,931.9c0,13.5,10.9,24.4,24.4,24.4C1955.5,942.8,1944.6,931.9,1931.1,931.9z"/>
				<path id="XMLID_706_" class="st3" d="M1485.7,159c-15.1,0-27.4,12.3-27.4,27.4C1473.5,186.5,1485.7,174.2,1485.7,159z"/>
				<path id="XMLID_705_" class="st3" d="M1408.4,150.7c23,0,41.6-18.6,41.6-41.6C1427,109.1,1408.4,127.7,1408.4,150.7z"/>
				<path id="XMLID_704_" class="st4" d="M1956.4,100.1c0-14.4-11.7-26.1-26.1-26.1C1930.3,88.4,1942,100.1,1956.4,100.1z"/>
				<path id="XMLID_703_" class="st3" d="M1926.6,146.6c18.5,0,33.4-15,33.4-33.4C1941.6,113.2,1926.6,128.2,1926.6,146.6z"/>
				<path id="XMLID_702_" class="st3" d="M1871.3,973.2c-15.1,0-27.4,12.3-27.4,27.4C1859.1,1000.7,1871.3,988.4,1871.3,973.2z"/>
				<path id="XMLID_701_" class="st3" d="M1887.2,973.7c0,14.7,11.9,26.6,26.6,26.6C1913.8,985.6,1901.9,973.7,1887.2,973.7z"/>
				<path id="XMLID_700_" class="st2" d="M1928.5,1015c0,16.3,13.2,29.6,29.6,29.6C1958.1,1028.3,1944.9,1015,1928.5,1015z"/>
				<path id="XMLID_699_" class="st3" d="M1887.2,1043.1c14.7,0,26.6-11.9,26.6-26.6C1899.1,1016.5,1887.2,1028.4,1887.2,1043.1z"/>
				<path id="XMLID_698_" class="st2" d="M1671.7,1015.2c0,16.1,13,29.1,29.1,29.1C1700.8,1028.3,1687.8,1015.2,1671.7,1015.2z"/>
				<path id="XMLID_697_" class="st3" d="M1844.6,759.6c0,14.4,11.7,26.1,26.1,26.1C1870.7,771.3,1859,759.6,1844.6,759.6z"/>
				<path id="XMLID_696_" class="st2" d="M1795.9,791.5c20.8,0,37.7-16.9,37.7-37.7C1812.8,753.8,1795.9,770.7,1795.9,791.5z"/>
				<path id="XMLID_695_" class="st3" d="M1794.9,795.6c0,22,17.8,39.9,39.8,39.9C1834.7,813.5,1816.9,795.6,1794.9,795.6z"/>
				<path id="XMLID_694_" class="st4" d="M1612.3,975.2c-13,0-23.6,10.6-23.6,23.6C1601.8,998.7,1612.3,988.2,1612.3,975.2z"/>
				<path id="XMLID_693_" class="st3" d="M1545.9,975.2c0,13,10.6,23.6,23.6,23.6C1569.5,985.7,1558.9,975.2,1545.9,975.2z"/>
				<path id="XMLID_692_" class="st3" d="M1319.5,234.5c0-20.8-16.9-37.7-37.7-37.7C1281.8,217.6,1298.7,234.5,1319.5,234.5z"/>
				<path id="XMLID_691_" class="st4" d="M1105.1,105.9c0-20.8-16.9-37.7-37.7-37.7C1067.4,89,1084.3,105.9,1105.1,105.9z"/>
				<path id="XMLID_690_" class="st2" d="M1613.8,271.7c0-14.7-11.9-26.6-26.6-26.6C1587.3,259.9,1599.2,271.7,1613.8,271.7z"/>
				<path id="XMLID_689_" class="st3" d="M1663.5,238.3c-22.2,0-40.3,18-40.3,40.3C1645.5,278.6,1663.5,260.6,1663.5,238.3z"/>
				<path id="XMLID_688_" class="st3" d="M1583.2,233c19.2,0,34.7-15.5,34.7-34.7C1598.7,198.3,1583.2,213.8,1583.2,233z"/>
				<path id="XMLID_687_" class="st3" d="M1662.3,234.5c0-20.8-16.9-37.7-37.7-37.7C1624.5,217.6,1641.4,234.5,1662.3,234.5z"/>
				<path id="XMLID_686_" class="st2" d="M1665.9,578.8c22.5,0,40.7-18.2,40.7-40.7C1684.1,538.1,1665.9,556.3,1665.9,578.8z"/>
				<path id="XMLID_685_" class="st2" d="M1658.8,659.6c0-17-13.8-30.9-30.8-30.9C1628,645.7,1641.8,659.6,1658.8,659.6z"/>
				<path id="XMLID_684_" class="st3" d="M1707.5,622.9c-23.4,0-42.4,19-42.4,42.4C1688.5,665.3,1707.5,646.3,1707.5,622.9z"/>
				<path id="XMLID_683_" class="st4" d="M1672.5,587.6c0,15.1,12.3,27.4,27.4,27.4C1700,599.8,1687.7,587.6,1672.5,587.6z"/>
				<path id="XMLID_682_" class="st3" d="M1668,62.4c20.1,0,36.4-16.3,36.4-36.4C1684.3,26,1668,42.3,1668,62.4z"/>
				<path id="XMLID_681_" class="st3" d="M1882.5,533.6c19.9,0,36-16.1,36-36C1898.6,497.6,1882.5,513.7,1882.5,533.6z"/>
				<path id="XMLID_680_" class="st3" d="M1870.3,528.2c0-14-11.3-25.3-25.3-25.3C1845,516.9,1856.3,528.2,1870.3,528.2z"/>
				<path id="XMLID_679_" class="st2" d="M1846.1,484.3c12.8,0,23.1-10.4,23.1-23.1C1856.4,461.2,1846.1,471.5,1846.1,484.3z"/>
				<path id="XMLID_678_" class="st3" d="M1059.9,156.3c-18.2,0-33,14.8-33,33C1045.2,189.3,1059.9,174.5,1059.9,156.3z"/>
				<path id="XMLID_677_" class="st2" d="M1014.5,186.7c0-15.4-12.5-27.9-27.8-27.9C986.7,174.2,999.1,186.7,1014.5,186.7z"/>
				<path id="XMLID_676_" class="st3" d="M1062.7,149.2c0-21.3-17.3-38.6-38.6-38.6C1024.2,131.9,1041.4,149.2,1062.7,149.2z"/>
				<path id="XMLID_675_" class="st3" d="M1403,318c0-18.5-15-33.4-33.4-33.4C1369.6,303.1,1384.6,318,1403,318z"/>
				<path id="XMLID_674_" class="st4" d="M1196.6,362.4c20.1,0,36.4-16.3,36.4-36.4C1212.9,326,1196.6,342.3,1196.6,362.4z"/>
				<path id="XMLID_673_" class="st3" d="M1499.4,59.6c17,0,30.8-13.8,30.8-30.9C1513.3,28.8,1499.4,42.6,1499.4,59.6z"/>
				<path id="XMLID_672_" class="st3" d="M1527.1,99.3c0-13.5-10.9-24.4-24.4-24.4C1502.7,88.3,1513.6,99.3,1527.1,99.3z"/>
				<path id="XMLID_671_" class="st2" d="M1574.4,70.3c-18.5,0-33.4,15-33.4,33.4C1559.5,103.8,1574.4,88.8,1574.4,70.3z"/>
				<path id="XMLID_670_" class="st2" d="M1585.1,59.6c17,0,30.8-13.8,30.8-30.9C1598.9,28.8,1585.1,42.6,1585.1,59.6z"/>
				<path id="XMLID_669_" class="st4" d="M1569.3,55.8c0-12.8-10.4-23.1-23.1-23.1C1546.1,45.4,1556.5,55.8,1569.3,55.8z"/>
				<path id="XMLID_668_" class="st3" d="M1922.8,236.2c22.7,0,41.1-18.4,41.1-41.1C1941.2,195,1922.8,213.5,1922.8,236.2z"/>
				<path id="XMLID_667_" class="st3" d="M1916.3,231.5c0-17.5-14.2-31.7-31.7-31.7C1884.6,217.3,1898.8,231.5,1916.3,231.5z"/>
				<path id="XMLID_666_" class="st3" d="M1492.2,64.3c0-22.2-18-40.3-40.3-40.3C1451.9,46.3,1469.9,64.3,1492.2,64.3z"/>
				<path id="XMLID_665_" class="st3" d="M1490,69.1c-19.9,0-36,16.1-36,36C1473.9,105.1,1490,88.9,1490,69.1z"/>
				<path id="XMLID_664_" class="st3" d="M1875.4,190.5c0-19.6-15.9-35.6-35.6-35.6C1839.8,174.6,1855.8,190.5,1875.4,190.5z"/>
				<path id="XMLID_663_" class="st3" d="M1917.2,146.6c0-18.5-15-33.4-33.4-33.4C1883.8,131.7,1898.7,146.6,1917.2,146.6z"/>
				<path id="XMLID_662_" class="st2" d="M1912,418.3c-12.8,0-23.1,10.4-23.1,23.1C1901.7,441.4,1912,431.1,1912,418.3z"/>
				<path id="XMLID_661_" class="st3" d="M1924.3,491.8c21.1,0,38.1-17.1,38.1-38.1C1941.3,453.7,1924.3,470.7,1924.3,491.8z"/>
				<path id="XMLID_660_" class="st3" d="M1918.5,490.7c0-19.9-16.1-36-36-36C1882.5,474.6,1898.6,490.7,1918.5,490.7z"/>
				<path id="XMLID_659_" class="st3" d="M1965.8,878.7c22.5,0,40.7-18.2,40.7-40.7C1984,838,1965.8,856.3,1965.8,878.7z"/>
				<path id="XMLID_658_" class="st2" d="M1971.8,886.9c0,15.9,12.9,28.7,28.7,28.7C2000.5,899.7,1987.7,886.9,1971.8,886.9z"/>
				<path id="XMLID_657_" class="st3" d="M1527.3,546c-13.7,0-24.9,11.1-24.9,24.9C1516.2,570.9,1527.3,559.7,1527.3,546z"/>
				<path id="XMLID_656_" class="st2" d="M1488.9,575.4c0-18.7-15.2-33.9-33.8-33.9C1455.1,560.2,1470.2,575.4,1488.9,575.4z"/>
				<path id="XMLID_655_" class="st4" d="M1838.6,406.1c21.1,0,38.1-17.1,38.1-38.1C1855.6,367.9,1838.6,385,1838.6,406.1z"/>
				<path id="XMLID_654_" class="st3" d="M1408.6,323.6c0,22.7,18.4,41.1,41.1,41.1C1449.7,342,1431.3,323.6,1408.6,323.6z"/>
				<path id="XMLID_653_" class="st3" d="M1444.2,372c-16.6,0-30,13.4-30,30C1430.7,402,1444.2,388.6,1444.2,372z"/>
				<path id="XMLID_652_" class="st4" d="M1398.3,399c0-13.3-10.7-24-24-24C1374.3,388.3,1385.1,399,1398.3,399z"/>
				<path id="XMLID_651_" class="st3" d="M1405,325.5c-20.6,0-37.3,16.7-37.3,37.3C1388.3,362.8,1405,346.1,1405,325.5z"/>
				<path id="XMLID_650_" class="st3" d="M1832.1,241.1c-19.2,0-34.7,15.5-34.7,34.7C1816.6,275.8,1832.1,260.3,1832.1,241.1z"/>
				<path id="XMLID_649_" class="st3" d="M1972.2,630.2c0,15.4,12.5,27.9,27.8,27.9C2000.1,642.7,1987.6,630.2,1972.2,630.2z"/>
				<path id="XMLID_648_" class="st3" d="M1962,705.6c0-20.6-16.7-37.3-37.3-37.3C1924.7,688.9,1941.4,705.6,1962,705.6z"/>
				<path id="XMLID_647_" class="st4" d="M1660.1,156c-18.5,0-33.4,15-33.4,33.4C1645.1,189.5,1660.1,174.5,1660.1,156z"/>
				<path id="XMLID_646_" class="st3" d="M1618.3,540.6c-19.6,0-35.6,15.9-35.6,35.6C1602.4,576.2,1618.3,560.3,1618.3,540.6z"/>
				<path id="XMLID_645_" class="st3" d="M1659.7,574.7c0-18-14.6-32.6-32.6-32.6C1627.1,560.1,1641.7,574.7,1659.7,574.7z"/>
				<path id="XMLID_644_" class="st3" d="M1829.8,144.9c0-16.6-13.4-30-30-30C1799.8,131.5,1813.2,144.9,1829.8,144.9z"/>
				<path id="XMLID_643_" class="st3" d="M1836.2,65.6c-23.7,0-42.8,19.2-42.8,42.9C1817,108.5,1836.2,89.3,1836.2,65.6z"/>
				<path id="XMLID_642_" class="st2" d="M1837.7,149.8c22,0,39.8-17.8,39.8-39.9C1855.5,110,1837.7,127.8,1837.7,149.8z"/>
				<path id="XMLID_641_" class="st4" d="M1877.3,706.7c0-21.8-17.6-39.4-39.4-39.4C1837.9,689,1855.6,706.7,1877.3,706.7z"/>
				<path id="XMLID_640_" class="st4" d="M1887.6,699.8c14.2,0,25.7-11.5,25.7-25.7C1899.1,674.1,1887.6,685.6,1887.6,699.8z"/>
				<path id="XMLID_639_" class="st3" d="M1837.7,664.1c22,0,39.8-17.8,39.8-39.9C1855.5,624.2,1837.7,642,1837.7,664.1z"/>
				<path id="XMLID_638_" class="st2" d="M1925.5,404.8c19.6,0,35.6-15.9,35.6-35.6C1941.5,369.2,1925.5,385.2,1925.5,404.8z"/>
				<path id="XMLID_637_" class="st3" d="M1997.7,398.6c0-12.8-10.4-23.1-23.1-23.1C1974.6,388.2,1985,398.6,1997.7,398.6z"/>
				<path id="XMLID_636_" class="st2" d="M1614.9,801.2c-15.9,0-28.7,12.9-28.7,28.7C1602.1,829.9,1614.9,817,1614.9,801.2z"/>
				<path id="XMLID_635_" class="st3" d="M1589.6,761.8c0,12.1,9.8,21.9,21.9,21.9C1611.5,771.5,1601.7,761.8,1589.6,761.8z"/>
				<path id="XMLID_634_" class="st2" d="M1572.1,758.3c-15.9,0-28.7,12.9-28.7,28.7C1559.2,787,1572.1,774.2,1572.1,758.3z"/>
			</g>
		</g>
		<g id="XMLID_346_" class="st0">
			<g id="XMLID_549_" class="st1">
				<path id="XMLID_1212_" class="st2" d="M146.9,880.7c22.3,0,40.4-18.1,40.4-40.4C165,840.3,146.9,858.4,146.9,880.7z"/>
				<path id="XMLID_1211_" class="st2" d="M-458.8,765.4c0,14.9,12.1,27,26.9,27C-431.9,777.5-444,765.4-458.8,765.4z"/>
				<path id="XMLID_1210_" class="st3" d="M184.8,837.5c0-19.6-15.9-35.5-35.5-35.5C149.3,821.6,165.2,837.5,184.8,837.5z"/>
				<path id="XMLID_1209_" class="st4" d="M-337.8,804.8c0,16.5,13.3,29.8,29.8,29.8C-308,818.1-321.3,804.8-337.8,804.8z"/>
				<path id="XMLID_1208_" class="st3" d="M-270.8,236.8c-12.4,0-22.5,10.1-22.5,22.5C-280.9,259.2-270.8,249.2-270.8,236.8z"/>
				<path id="XMLID_1207_" class="st3" d="M-304.1,266.8c0-20.7-16.8-37.6-37.6-37.6C-341.7,250-324.8,266.8-304.1,266.8z"/>
				<path id="XMLID_1206_" class="st4" d="M-186.3,384.6c0-15.6-12.6-28.2-28.2-28.2C-214.5,372-201.9,384.6-186.3,384.6z"/>
				<path id="XMLID_1205_" class="st4" d="M148.3,961c20.7,0,37.6-16.8,37.6-37.6C165.1,923.4,148.3,940.2,148.3,961z"/>
				<path id="XMLID_1204_" class="st3" d="M-335.1,970.8c0,13.5,11,24.5,24.5,24.5C-310.6,981.8-321.6,970.8-335.1,970.8z"/>
				<path id="XMLID_1203_" class="st2" d="M-542.7,917.1c17.4,0,31.4-14.1,31.4-31.4C-528.7,885.6-542.7,899.7-542.7,917.1z"/>
				<path id="XMLID_1202_" class="st2" d="M-212.2,1076.6c13.1,0,23.7-10.6,23.7-23.7C-201.6,1052.9-212.2,1063.5-212.2,1076.6z"/>
				<path id="XMLID_1201_" class="st3" d="M-470.1,599.4c-17.8,0-32.3,14.4-32.3,32.3C-484.5,631.6-470.1,617.2-470.1,599.4z"/>
				<path id="XMLID_1200_" class="st3" d="M-178.5,552.8c21,0,38-17,38-38C-161.5,514.9-178.5,531.9-178.5,552.8z"/>
				<path id="XMLID_1199_" class="st4" d="M-427.8,393.8c-19.4,0-35.1,15.7-35.1,35.1C-443.5,428.9-427.8,413.2-427.8,393.8z"/>
				<path id="XMLID_1198_" class="st3" d="M-419.6,467.3c16.7,0,30.2-13.5,30.2-30.2C-406.1,437.1-419.6,450.6-419.6,467.3z"/>
				<path id="XMLID_1197_" class="st2" d="M149.1,796.8c19.8,0,35.9-16.1,35.9-35.9C165.2,760.9,149.1,777,149.1,796.8z"/>
				<path id="XMLID_1196_" class="st2" d="M-378,601.2c0,15.8,12.8,28.6,28.6,28.6C-349.4,614-362.2,601.2-378,601.2z"/>
				<path id="XMLID_1195_" class="st4" d="M191.1,1081.7c18.7,0,33.9-15.2,33.9-33.9C206.2,1047.8,191.1,1062.9,191.1,1081.7z"/>
				<path id="XMLID_1194_" class="st3" d="M-305.3,843c-19.4,0-35.1,15.7-35.1,35.1C-321,878.1-305.3,862.4-305.3,843z"/>
				<path id="XMLID_1193_" class="st3" d="M-88.7,808.9c0,12,9.7,21.6,21.6,21.6C-67.1,818.6-76.8,808.9-88.7,808.9z"/>
				<path id="XMLID_1192_" class="st4" d="M-138.7,840.5c0,22.1,17.9,40,40,40C-98.7,858.4-116.6,840.5-138.7,840.5z"/>
				<path id="XMLID_1191_" class="st3" d="M-145.5,180.4c0-15.6-12.6-28.2-28.2-28.2C-173.6,167.8-161,180.4-145.5,180.4z"/>
				<path id="XMLID_1190_" class="st4" d="M-190.2,217.4c0-11.3-9.1-20.4-20.4-20.4C-210.6,208.2-201.5,217.4-190.2,217.4z"/>
				<path id="XMLID_1189_" class="st3" d="M-298.2,835.8c17.8,0,32.3-14.4,32.3-32.3C-283.7,803.6-298.2,818-298.2,835.8z"/>
				<path id="XMLID_1188_" class="st4" d="M-226.7,846c-16,0-29,13-29,29C-239.7,875-226.7,862.1-226.7,846z"/>
				<path id="XMLID_1187_" class="st2" d="M-299.4,843.2c0,19.2,15.5,34.7,34.7,34.7C-264.7,858.7-280.2,843.2-299.4,843.2z"/>
				<path id="XMLID_1186_" class="st4" d="M17.6,846.7c-15.3,0-27.8,12.4-27.8,27.8C5.2,874.4,17.6,862,17.6,846.7z"/>
				<path id="XMLID_1185_" class="st3" d="M-497.4,645.1c0,12.4,10.1,22.5,22.5,22.5C-475,655.2-485,645.1-497.4,645.1z"/>
				<path id="XMLID_1184_" class="st3" d="M-511.3,640.6c-17.4,0-31.4,14.1-31.4,31.4C-525.4,672.1-511.3,658-511.3,640.6z"/>
				<path id="XMLID_1183_" class="st3" d="M-294.1,930.2c0,13.3,10.8,24.1,24.1,24.1C-270,940.9-280.8,930.2-294.1,930.2z"/>
				<path id="XMLID_1182_" class="st4" d="M-259,883.6c0,19.6,15.9,35.5,35.5,35.5C-223.5,899.5-239.4,883.6-259,883.6z"/>
				<path id="XMLID_1181_" class="st3" d="M-424.5,718c0,22.1,17.9,40,40,40C-384.5,735.9-402.4,718-424.5,718z"/>
				<path id="XMLID_1180_" class="st3" d="M152.8,1038.2c15.8,0,28.6-12.8,28.6-28.6C165.6,1009.6,152.8,1022.4,152.8,1038.2z"/>
				<path id="XMLID_1179_" class="st2" d="M182,997.9c0-16.5-13.3-29.8-29.8-29.8C152.2,984.6,165.5,997.9,182,997.9z"/>
				<path id="XMLID_1178_" class="st3" d="M-456.6,830.9c12.4,0,22.5-10.1,22.5-22.5C-446.5,808.5-456.6,818.5-456.6,830.9z"/>
				<path id="XMLID_1177_" class="st4" d="M-375.8,685.1c0,13.3,10.8,24.1,24.1,24.1C-351.7,695.9-362.4,685.1-375.8,685.1z"/>
				<path id="XMLID_1176_" class="st2" d="M-102.6,150.2c-17.8,0-32.3,14.4-32.3,32.3C-117,182.5-102.6,168-102.6,150.2z"/>
				<path id="XMLID_1175_" class="st3" d="M-212.6,750.3c13.5,0,24.5-11,24.5-24.5C-201.7,725.8-212.6,736.7-212.6,750.3z"/>
				<path id="XMLID_1174_" class="st4" d="M-230.2,686.2c-12.2,0-22,9.9-22,22.1C-240.1,708.2-230.2,698.3-230.2,686.2z"/>
				<path id="XMLID_1173_" class="st3" d="M-347.6,468.3c0-17.8-14.4-32.3-32.3-32.3C-379.8,453.9-365.4,468.3-347.6,468.3z"/>
				<path id="XMLID_1172_" class="st3" d="M-506.2,881.4c0,22.1,17.9,40,40,40C-466.2,899.3-484.1,881.4-506.2,881.4z"/>
				<path id="XMLID_1171_" class="st2" d="M-461.3,844.6c0,17.6,14.3,31.9,31.8,31.9C-429.4,858.9-443.7,844.6-461.3,844.6z"/>
				<path id="XMLID_1170_" class="st3" d="M-300.6,1087c0,20.5,16.6,37.2,37.2,37.2C-263.5,1103.6-280.1,1087-300.6,1087z"/>
				<path id="XMLID_1169_" class="st2" d="M-311.4,930.8c-12.6,0-22.9,10.2-22.9,22.9C-321.7,953.6-311.4,943.4-311.4,930.8z"/>
				<path id="XMLID_1168_" class="st3" d="M-340.4,883.8c0,19.4,15.7,35.1,35.1,35.1C-305.3,899.5-321,883.8-340.4,883.8z"/>
				<path id="XMLID_1167_" class="st3" d="M237.2,889.7c0,12.9,10.4,23.3,23.3,23.3C260.5,900.2,250.1,889.7,237.2,889.7z"/>
				<path id="XMLID_1166_" class="st2" d="M-216.7,680.9c0,18,14.6,32.7,32.7,32.7C-184.1,695.5-198.7,680.9-216.7,680.9z"/>
				<path id="XMLID_1165_" class="st3" d="M-499.1,806.8c0,14.2,11.5,25.7,25.7,25.7C-473.3,818.4-484.9,806.8-499.1,806.8z"/>
				<path id="XMLID_1164_" class="st3" d="M-543.4,836c18,0,32.7-14.6,32.7-32.7C-528.7,803.4-543.4,818-543.4,836z"/>
				<path id="XMLID_1163_" class="st4" d="M-468.2,842.6c-19.8,0-35.9,16.1-35.9,35.9C-484.3,878.5-468.2,862.4-468.2,842.6z"/>
				<path id="XMLID_1162_" class="st3" d="M343.4,929.3c-14.2,0-25.7,11.5-25.7,25.7C331.9,955.1,343.4,943.6,343.4,929.3z"/>
				<path id="XMLID_1161_" class="st3" d="M-540.7,928.5c0,15.1,12.2,27.4,27.4,27.4C-513.4,940.8-525.6,928.5-540.7,928.5z"/>
				<path id="XMLID_1160_" class="st3" d="M-147.5,505.1c0-13.3-10.8-24.1-24.1-24.1C-171.6,494.3-160.8,505.1-147.5,505.1z"/>
				<path id="XMLID_1159_" class="st2" d="M-130.4,504.6c12.9,0,23.3-10.4,23.3-23.3C-119.9,481.4-130.4,491.8-130.4,504.6z"/>
				<path id="XMLID_1158_" class="st4" d="M-435.2,625.7c0-11.3-9.1-20.4-20.4-20.4C-455.6,616.6-446.4,625.7-435.2,625.7z"/>
				<path id="XMLID_1157_" class="st3" d="M-257.3,640.2c0,17.8,14.4,32.3,32.3,32.3C-225.1,654.7-239.5,640.2-257.3,640.2z"/>
				<path id="XMLID_1156_" class="st2" d="M-230,931c-12.4,0-22.5,10.1-22.5,22.5C-240,953.4-230,943.4-230,931z"/>
				<path id="XMLID_1155_" class="st3" d="M34.4,584.9c11.3,0,20.4-9.1,20.4-20.4C43.5,564.5,34.4,573.6,34.4,584.9z"/>
				<path id="XMLID_1154_" class="st4" d="M-302.5,758.4c0,22.6,18.3,40.8,40.8,40.8C-261.6,776.7-279.9,758.4-302.5,758.4z"/>
				<path id="XMLID_1153_" class="st3" d="M-230.4,768c-12,0-21.6,9.7-21.6,21.6C-240.1,789.7-230.4,780-230.4,768z"/>
				<path id="XMLID_1152_" class="st4" d="M-257.6,721.7c0,18,14.6,32.7,32.7,32.7C-224.9,736.3-239.5,721.7-257.6,721.7z"/>
				<path id="XMLID_1150_" class="st3" d="M-311,423.2c0-13.1-10.6-23.7-23.7-23.7C-334.7,412.6-324.1,423.2-311,423.2z"/>
				<path id="XMLID_1149_" class="st3" d="M-259.6,470.5c20.3,0,36.7-16.5,36.7-36.8C-243.1,433.8-259.6,450.3-259.6,470.5z"/>
				<path id="XMLID_1148_" class="st3" d="M-394.3,258.2c0-11.3-9.1-20.4-20.4-20.4C-414.7,249.1-405.6,258.2-394.3,258.2z"/>
				<path id="XMLID_1147_" class="st2" d="M-429.9,559.2c-17.1,0-31,13.9-31,31C-443.7,590.2-429.9,576.3-429.9,559.2z"/>
				<path id="XMLID_1144_" class="st4" d="M-475.6,1094.9c-11.7,0-21.2,9.5-21.2,21.2C-485.1,1116.2-475.6,1106.7-475.6,1094.9z"/>
				<path id="XMLID_1141_" class="st2" d="M-131.4,669c14,0,25.3-11.3,25.3-25.3C-120.1,643.7-131.4,655-131.4,669z"/>
				<path id="XMLID_1140_" class="st3" d="M-350.6,479.9c-14.4,0-26.1,11.7-26.1,26.1C-362.3,506.1-350.6,494.4-350.6,479.9z"/>
				<path id="XMLID_1139_" class="st3" d="M-14.4,883.2c0,20.1,16.3,36.3,36.3,36.3C21.9,899.5,5.7,883.2-14.4,883.2z"/>
				<path id="XMLID_1138_" class="st3" d="M-432.7,383.2c0-14-11.3-25.3-25.3-25.3C-458,371.8-446.7,383.2-432.7,383.2z"/>
				<path id="XMLID_1137_" class="st3" d="M-378.8,927.1c0,16.7,13.5,30.2,30.2,30.2C-348.6,940.6-362.1,927.1-378.8,927.1z"/>
				<path id="XMLID_1136_" class="st3" d="M-385.8,923.4c-20.7,0-37.6,16.8-37.6,37.6C-402.6,961-385.8,944.2-385.8,923.4z"/>
				<path id="XMLID_1135_" class="st3" d="M-303.9,759.9c-21,0-38,17-38,38C-320.9,797.9-303.9,780.8-303.9,759.9z"/>
				<path id="XMLID_1134_" class="st3" d="M-378.4,752.7c16.2,0,29.4-13.2,29.4-29.4C-365.2,723.3-378.4,736.5-378.4,752.7z"/>
				<path id="XMLID_1133_" class="st4" d="M-296.5,997.5c16,0,29-13,29-29C-283.6,968.5-296.5,981.5-296.5,997.5z"/>
				<path id="XMLID_1132_" class="st3" d="M-229.2,1011.8c-13.3,0-24.1,10.8-24.1,24.1C-240,1035.9-229.2,1025.1-229.2,1011.8z"/>
				<path id="XMLID_1131_" class="st2" d="M-261.4,962.8c0,22.3,18.1,40.4,40.4,40.4C-221,980.9-239.1,962.8-261.4,962.8z"/>
				<path id="XMLID_1130_" class="st4" d="M-516,563.7c-12.2,0-22,9.9-22,22.1C-525.9,585.7-516,575.8-516,563.7z"/>
				<path id="XMLID_1129_" class="st2" d="M-430.9,303.3c0-16-13-29-29-29C-459.9,290.3-446.9,303.3-430.9,303.3z"/>
				<path id="XMLID_1128_" class="st3" d="M-431.1,315.4c-15.8,0-28.6,12.8-28.6,28.6C-443.9,344-431.1,331.2-431.1,315.4z"/>
				<path id="XMLID_1127_" class="st3" d="M-312.5,605.1c-11.5,0-20.8,9.3-20.8,20.8C-321.8,625.9-312.5,616.6-312.5,605.1z"/>
				<path id="XMLID_1126_" class="st3" d="M-301.4,675.8c21.4,0,38.8-17.4,38.8-38.8C-284.1,637-301.4,654.3-301.4,675.8z"/>
				<path id="XMLID_1124_" class="st4" d="M-342.3,637c0,21.4,17.4,38.8,38.8,38.8C-303.5,654.3-320.9,637-342.3,637z"/>
				<path id="XMLID_1123_" class="st3" d="M-433.1,464.4c0-13.5-11-24.5-24.5-24.5C-457.6,453.5-446.6,464.4-433.1,464.4z"/>
				<path id="XMLID_1121_" class="st2" d="M-261.6,309.2c0-22.6-18.3-40.8-40.8-40.8C-302.5,291-284.2,309.2-261.6,309.2z"/>
				<path id="XMLID_1120_" class="st3" d="M-270.6,318.2c-12.6,0-22.9,10.2-22.9,22.9C-280.9,341.1-270.6,330.9-270.6,318.2z"/>
				<path id="XMLID_1119_" class="st2" d="M-96.3,470.5c20.3,0,36.7-16.5,36.7-36.8C-79.8,433.8-96.3,450.3-96.3,470.5z"/>
				<path id="XMLID_1118_" class="st2" d="M-65.9,505.1c0-13.3-10.8-24.1-24.1-24.1C-89.9,494.3-79.2,505.1-65.9,505.1z"/>
				<path id="XMLID_1117_" class="st3" d="M-149.1,340.1c0-11.5-9.3-20.8-20.8-20.8C-170,330.8-160.6,340.1-149.1,340.1z"/>
				<path id="XMLID_1114_" class="st3" d="M111.3,834.6c16.5,0,29.8-13.3,29.8-29.8C124.7,804.8,111.3,818.1,111.3,834.6z"/>
				<path id="XMLID_1113_" class="st4" d="M109.1,761.7c0,18.9,15.4,34.3,34.3,34.3C143.4,777.1,128,761.7,109.1,761.7z"/>
				<path id="XMLID_1112_" class="st3" d="M19.1,926.9c-16.9,0-30.6,13.7-30.6,30.6C5.4,957.5,19.1,943.8,19.1,926.9z"/>
				<path id="XMLID_1111_" class="st2" d="M-293.7,1076.4c12.9,0,23.3-10.4,23.3-23.3C-283.3,1053.1-293.7,1063.5-293.7,1076.4z"/>
				<path id="XMLID_1110_" class="st2" d="M-309.6,1010.6c-14.7,0-26.5,11.9-26.5,26.5C-321.5,1037.2-309.6,1025.3-309.6,1010.6z"/>
				<path id="XMLID_1109_" class="st3" d="M-302.3,1003.7c0,22.3,18.1,40.4,40.4,40.4C-261.8,1021.8-279.9,1003.7-302.3,1003.7z"/>
				<path id="XMLID_1105_" class="st2" d="M-47.3,748.2c11.3,0,20.4-9.1,20.4-20.4C-38.1,727.8-47.3,737-47.3,748.2z"/>
				<path id="XMLID_1101_" class="st2" d="M-547,1003.1c22.1,0,40-17.9,40-40C-529.1,963-547,981-547,1003.1z"/>
				<path id="XMLID_1100_" class="st2" d="M-141.8,842.8c-19.6,0-35.5,15.9-35.5,35.5C-157.7,878.3-141.8,862.4-141.8,842.8z"/>
				<path id="XMLID_1097_" class="st3" d="M-226.5,507.7c0-16.2-13.2-29.4-29.4-29.4C-255.9,494.5-242.8,507.7-226.5,507.7z"/>
				<path id="XMLID_1089_" class="st4" d="M231.1,1047c0,19.6,15.9,35.5,35.5,35.5C266.6,1062.9,250.7,1047,231.1,1047z"/>
				<path id="XMLID_1088_" class="st3" d="M271.9,1082.5c19.6,0,35.5-15.9,35.5-35.5C287.8,1047,271.9,1062.9,271.9,1082.5z"/>
				<path id="XMLID_1087_" class="st4" d="M111.1,845.4c0,16.7,13.5,30.2,30.2,30.2C141.4,859,127.8,845.4,111.1,845.4z"/>
				<path id="XMLID_1086_" class="st2" d="M351.9,1086.2c0,21.4,17.4,38.8,38.8,38.8C390.7,1103.5,373.4,1086.2,351.9,1086.2z"/>
				<path id="XMLID_1085_" class="st3" d="M-134.2,916.9c17.1,0,31-13.9,31-31C-120.4,885.9-134.2,899.7-134.2,916.9z"/>
				<path id="XMLID_1084_" class="st4" d="M-136.9,924c0,20.1,16.3,36.3,36.3,36.3C-100.6,940.3-116.8,924-136.9,924z"/>
				<path id="XMLID_1083_" class="st3" d="M-66.1,930.4c-13.1,0-23.7,10.6-23.7,23.7C-76.7,954-66.1,943.4-66.1,930.4z"/>
				<path id="XMLID_1082_" class="st2" d="M-261.6,472.6c0-22.6-18.3-40.8-40.8-40.8C-302.5,454.3-284.2,472.6-261.6,472.6z"/>
				<path id="XMLID_1079_" class="st3" d="M-343.3,472.6c22.5,0,40.8-18.3,40.8-40.8C-325,431.8-343.3,450-343.3,472.6z"/>
				<path id="XMLID_1078_" class="st3" d="M-311.4,504.4c0-12.6-10.2-22.9-22.9-22.9C-334.3,494.2-324.1,504.4-311.4,504.4z"/>
				<path id="XMLID_1077_" class="st3" d="M-267.8,478.7c-15.8,0-28.6,12.8-28.6,28.6C-280.6,507.3-267.8,494.5-267.8,478.7z"/>
				<path id="XMLID_1075_" class="st3" d="M-295.5,683.7c0,14.9,12.1,27,26.9,27C-268.6,695.8-280.6,683.7-295.5,683.7z"/>
				<path id="XMLID_1072_" class="st3" d="M-301.2,757.2c21.2,0,38.4-17.2,38.4-38.4C-284.1,718.8-301.2,736-301.2,757.2z"/>
				<path id="XMLID_1071_" class="st3" d="M-341.3,719.6c0,20.3,16.5,36.8,36.7,36.8C-304.5,736.1-321,719.6-341.3,719.6z"/>
				<path id="XMLID_1070_" class="st3" d="M-309.4,179.8c0-14.9-12.1-27-26.9-27C-336.4,167.7-324.3,179.8-309.4,179.8z"/>
				<path id="XMLID_1069_" class="st2" d="M227.2,882.2c-21.2,0-38.4,17.2-38.4,38.4C210,920.6,227.2,903.4,227.2,882.2z"/>
				<path id="XMLID_1068_" class="st4" d="M-66.9,1012.9c-12.2,0-22,9.9-22,22.1C-76.7,1034.9-66.9,1025-66.9,1012.9z"/>
				<path id="XMLID_1067_" class="st3" d="M-131.4,995.7c14,0,25.3-11.3,25.3-25.3C-120.1,970.4-131.4,981.7-131.4,995.7z"/>
				<path id="XMLID_1066_" class="st2" d="M-91.8,969.2c0,15.3,12.4,27.8,27.8,27.8C-64,981.6-76.4,969.2-91.8,969.2z"/>
				<path id="XMLID_1065_" class="st3" d="M-338.2,385.8c16.9,0,30.6-13.7,30.6-30.6C-324.5,355.2-338.2,368.9-338.2,385.8z"/>
				<path id="XMLID_1064_" class="st2" d="M-349.4,303.1c0-15.8-12.8-28.6-28.6-28.6C-378,290.3-365.2,303.1-349.4,303.1z"/>
				<path id="XMLID_1063_" class="st3" d="M-421.7,306c18.9,0,34.3-15.4,34.3-34.3C-406.3,271.7-421.7,287-421.7,306z"/>
				<path id="XMLID_1062_" class="st3" d="M-393.7,340.5c0-12-9.7-21.6-21.6-21.6C-415.4,330.8-405.7,340.5-393.7,340.5z"/>
				<path id="XMLID_1061_" class="st2" d="M-343.9,309.9c-21.9,0-39.6,17.7-39.6,39.6C-361.6,349.5-343.9,331.7-343.9,309.9z"/>
				<path id="XMLID_1060_" class="st3" d="M-507.6,146.9c-21.4,0-38.8,17.4-38.8,38.8C-525,185.7-507.6,168.3-507.6,146.9z"/>
				<path id="XMLID_1059_" class="st2" d="M-515.2,219c0-13.1-10.6-23.7-23.7-23.7C-538.9,208.4-528.3,219-515.2,219z"/>
				<path id="XMLID_1058_" class="st2" d="M311.9,964.5c0,20.5,16.6,37.2,37.2,37.2C349.1,981.1,332.5,964.5,311.9,964.5z"/>
				<path id="XMLID_1056_" class="st4" d="M276.4,1010.6c0,14.7,11.9,26.5,26.5,26.5C303,1022.5,291.1,1010.6,276.4,1010.6z"/>
				<path id="XMLID_1055_" class="st4" d="M180.1,1092.5c-14.4,0-26.1,11.7-26.1,26.1C168.4,1118.6,180.1,1106.9,180.1,1092.5z"/>
				<path id="XMLID_1054_" class="st2" d="M-382.9,1086.4c0,21.2,17.2,38.4,38.4,38.4C-344.5,1103.5-361.7,1086.4-382.9,1086.4z"/>
				<path id="XMLID_1053_" class="st2" d="M-311.9,1094.5c-12.2,0-22,9.9-22,22.1C-321.7,1116.6-311.9,1106.7-311.9,1094.5z"/>
				<path id="XMLID_1052_" class="st3" d="M-343.1,1044.5c0,22.3,18.1,40.4,40.4,40.4C-302.7,1062.6-320.8,1044.5-343.1,1044.5z"/>
				<path id="XMLID_1051_" class="st4" d="M-135.7,755c18.7,0,33.9-15.2,33.9-33.9C-120.5,721.1-135.7,736.3-135.7,755z"/>
				<path id="XMLID_1050_" class="st2" d="M-130.4,685.6c0,12.9,10.4,23.3,23.3,23.3C-107.1,696-117.5,685.6-130.4,685.6z"/>
				<path id="XMLID_1049_" class="st2" d="M33.6,1075.7c12.2,0,22-9.9,22-22.1C43.4,1053.7,33.6,1063.6,33.6,1075.7z"/>
				<path id="XMLID_1048_" class="st4" d="M29.1,1008.4c0,17.1,13.9,31,31,31C60.1,1022.3,46.2,1008.4,29.1,1008.4z"/>
				<path id="XMLID_1047_" class="st4" d="M193.1,1009c0,16.5,13.3,29.8,29.8,29.8C222.9,1022.3,209.6,1009,193.1,1009z"/>
				<path id="XMLID_1046_" class="st3" d="M223.7,967.3c-17.4,0-31.4,14.1-31.4,31.4C209.7,998.8,223.7,984.7,223.7,967.3z"/>
				<path id="XMLID_1045_" class="st2" d="M262.7,1010c-15.3,0-27.8,12.4-27.8,27.8C250.3,1037.8,262.7,1025.3,262.7,1010z"/>
				<path id="XMLID_1044_" class="st2" d="M-347.2,558.1c-18.3,0-33.1,14.8-33.1,33.1C-362,591.2-347.2,576.4-347.2,558.1z"/>
				<path id="XMLID_1043_" class="st3" d="M311.9,882.8c0,20.5,16.6,37.2,37.2,37.2C349.1,899.4,332.5,882.8,311.9,882.8z"/>
				<path id="XMLID_1042_" class="st3" d="M-392.9,1093.9c-12.9,0-23.3,10.4-23.3,23.3C-403.3,1117.2-392.9,1106.8-392.9,1093.9z"/>
				<path id="XMLID_1041_" class="st2" d="M-541.9,1079.6c16.5,0,29.8-13.3,29.8-29.8C-528.6,1049.8-541.9,1063.2-541.9,1079.6z"/>
				<path id="XMLID_1040_" class="st3" d="M-537.6,1013.3c0,11.7,9.5,21.2,21.2,21.2C-516.4,1022.8-525.9,1013.3-537.6,1013.3z"/>
				<path id="XMLID_1039_" class="st3" d="M-507.6,391.9c-21.4,0-38.8,17.4-38.8,38.8C-525,430.7-507.6,413.4-507.6,391.9z"/>
				<path id="XMLID_1038_" class="st2" d="M-510.3,468.9c0-18.5-15-33.5-33.5-33.5C-543.8,453.9-528.8,468.9-510.3,468.9z"/>
				<path id="XMLID_1037_" class="st2" d="M-333.9,544.9c12.2,0,22-9.9,22-22.1C-324,522.8-333.9,532.7-333.9,544.9z"/>
				<path id="XMLID_1036_" class="st4" d="M-271,544.9c0-12.2-9.9-22.1-22-22.1C-293.1,535-283.2,544.9-271,544.9z"/>
				<path id="XMLID_1035_" class="st4" d="M136.9,1054.1c-11.7,0-21.2,9.5-21.2,21.2C127.4,1075.3,136.9,1065.8,136.9,1054.1z"/>
				<path id="XMLID_1034_" class="st2" d="M72.2,1051.4c0,14.7,11.9,26.5,26.5,26.5C98.7,1063.3,86.8,1051.4,72.2,1051.4z"/>
				<path id="XMLID_1033_" class="st3" d="M107.3,1004.9c0,21,17,38,38,38C145.2,1021.9,128.2,1004.9,107.3,1004.9z"/>
				<path id="XMLID_1032_" class="st3" d="M101.1,1008.2c-17.4,0-31.4,14.1-31.4,31.4C87.1,1039.6,101.1,1025.5,101.1,1008.2z"/>
				<path id="XMLID_1031_" class="st3" d="M30.3,915.7c15.8,0,28.6-12.8,28.6-28.6C43.1,887.1,30.3,899.9,30.3,915.7z"/>
				<path id="XMLID_1030_" class="st2" d="M31.9,929.5c0,14,11.3,25.3,25.3,25.3C57.2,940.9,45.9,929.5,31.9,929.5z"/>
				<path id="XMLID_1029_" class="st3" d="M98.5,914.4c0-14.4-11.7-26.1-26.1-26.1C72.4,902.7,84.1,914.4,98.5,914.4z"/>
				<path id="XMLID_1028_" class="st3" d="M32.5,750.1c13.3,0,24.1-10.8,24.1-24.1C43.3,726,32.5,736.8,32.5,750.1z"/>
				<path id="XMLID_1027_" class="st3" d="M-60.5,592c0-19.2-15.5-34.7-34.7-34.7C-95.3,576.5-79.7,592-60.5,592z"/>
				<path id="XMLID_1026_" class="st2" d="M-47.9,849.7c0,12,9.7,21.6,21.6,21.6C-26.2,859.4-35.9,849.7-47.9,849.7z"/>
				<path id="XMLID_1025_" class="st4" d="M-52.2,916.5c16.7,0,30.2-13.5,30.2-30.2C-38.6,886.3-52.2,899.8-52.2,916.5z"/>
				<path id="XMLID_1024_" class="st3" d="M-514.8,235.7c-13.5,0-24.5,11-24.5,24.5C-525.7,260.2-514.8,249.3-514.8,235.7z"/>
				<path id="XMLID_1023_" class="st3" d="M-496.6,299.2c11.5,0,20.8-9.3,20.8-20.8C-487.3,278.4-496.6,287.7-496.6,299.2z"/>
				<path id="XMLID_1022_" class="st4" d="M186.5,757.4c0-21.4-17.4-38.8-38.8-38.8C147.7,740.1,165.1,757.4,186.5,757.4z"/>
				<path id="XMLID_1021_" class="st3" d="M74.4,708.2c12.2,0,22-9.9,22-22.1C84.3,686.2,74.4,696,74.4,708.2z"/>
				<path id="XMLID_1020_" class="st2" d="M-9.5,628.8c14.7,0,26.5-11.9,26.5-26.5C2.4,602.2-9.5,614.1-9.5,628.8z"/>
				<path id="XMLID_1019_" class="st3" d="M15,585.9c0-12.4-10.1-22.5-22.5-22.5C-7.5,575.9,2.6,585.9,15,585.9z"/>
				<path id="XMLID_1018_" class="st4" d="M-53.4,591c18,0,32.7-14.6,32.7-32.7C-38.8,558.3-53.4,573-53.4,591z"/>
				<path id="XMLID_1017_" class="st3" d="M-179.4,1044.9c0,21.9,17.7,39.6,39.6,39.6C-139.8,1062.6-157.5,1044.9-179.4,1044.9z"/>
				<path id="XMLID_1016_" class="st3" d="M-426.8,229.4c-20.5,0-37.2,16.6-37.2,37.2C-443.4,266.6-426.8,249.9-426.8,229.4z"/>
				<path id="XMLID_1015_" class="st2" d="M-474.6,259.6c0-12.9-10.4-23.3-23.3-23.3C-497.8,249.2-487.4,259.6-474.6,259.6z"/>
				<path id="XMLID_1014_" class="st3" d="M-50.1,996.1c14.4,0,26.1-11.7,26.1-26.1C-38.4,970-50.1,981.7-50.1,996.1z"/>
				<path id="XMLID_1013_" class="st3" d="M23.6,1004.1c-21.9,0-39.6,17.7-39.6,39.6C5.8,1043.7,23.6,1025.9,23.6,1004.1z"/>
				<path id="XMLID_1012_" class="st4" d="M-498.7,1052.3c0,13.8,11.2,24.9,24.9,24.9C-473.7,1063.4-484.9,1052.3-498.7,1052.3z"/>
				<path id="XMLID_1011_" class="st3" d="M-470.3,1008c-17.6,0-31.8,14.3-31.8,31.9C-484.5,1039.8-470.3,1025.5-470.3,1008z"/>
				<path id="XMLID_1010_" class="st3" d="M-417.6,220.2c14.4,0,26.1-11.7,26.1-26.1C-405.9,194.1-417.6,205.8-417.6,220.2z"/>
				<path id="XMLID_1009_" class="st3" d="M-432.7,219.8c0-14-11.3-25.3-25.3-25.3C-458,208.5-446.7,219.8-432.7,219.8z"/>
				<path id="XMLID_1008_" class="st2" d="M-472.1,180.4c0-15.6-12.6-28.2-28.2-28.2C-500.3,167.8-487.7,180.4-472.1,180.4z"/>
				<path id="XMLID_1007_" class="st3" d="M-432.7,153.7c-14,0-25.3,11.3-25.3,25.3C-444,179-432.7,167.6-432.7,153.7z"/>
				<path id="XMLID_1006_" class="st2" d="M-227.3,180.2c0-15.3-12.4-27.8-27.8-27.8C-255.1,167.8-242.7,180.2-227.3,180.2z"/>
				<path id="XMLID_1005_" class="st3" d="M-392.1,423.8c0-13.8-11.2-24.9-24.9-24.9C-417,412.6-405.8,423.8-392.1,423.8z"/>
				<path id="XMLID_1004_" class="st2" d="M-345.7,393.4c-19.8,0-35.9,16.1-35.9,35.9C-361.8,429.3-345.7,413.2-345.7,393.4z"/>
				<path id="XMLID_1003_" class="st3" d="M-344.7,389.5c0-21-17-38-38-38C-382.7,372.5-365.7,389.5-344.7,389.5z"/>
				<path id="XMLID_1002_" class="st4" d="M-170.8,218.4c12.4,0,22.5-10.1,22.5-22.5C-160.7,195.9-170.8,206-170.8,218.4z"/>
				<path id="XMLID_1001_" class="st3" d="M-107.5,218.4c0-12.4-10.1-22.5-22.5-22.5C-130,208.3-119.9,218.4-107.5,218.4z"/>
				<path id="XMLID_1000_" class="st3" d="M108.3,924.2c0,19.8,16.1,35.9,35.9,35.9C144.2,940.3,128.1,924.2,108.3,924.2z"/>
				<path id="XMLID_999_" class="st4" d="M312.5,1046.7c0,19.8,16.1,35.9,35.9,35.9C348.5,1062.8,332.4,1046.7,312.5,1046.7z"/>
				<path id="XMLID_998_" class="st2" d="M-172.2,888.7c0,14,11.3,25.3,25.3,25.3C-146.9,900-158.2,888.7-172.2,888.7z"/>
				<path id="XMLID_997_" class="st3" d="M-219.6,920.6c21.2,0,38.4-17.2,38.4-38.4C-202.4,882.2-219.6,899.4-219.6,920.6z"/>
				<path id="XMLID_996_" class="st3" d="M-143,925.7c-18.3,0-33.1,14.8-33.1,33.1C-157.8,958.7-143,943.9-143,925.7z"/>
				<path id="XMLID_995_" class="st3" d="M-218.4,924.2c0,19.8,16.1,35.9,35.9,35.9C-182.4,940.3-198.5,924.2-218.4,924.2z"/>
				<path id="XMLID_994_" class="st2" d="M-221.8,596.1c-21.4,0-38.8,17.4-38.8,38.8C-239.2,634.9-221.8,617.5-221.8,596.1z"/>
				<path id="XMLID_993_" class="st2" d="M-215.1,519.1c0,16.2,13.2,29.4,29.4,29.4C-185.7,532.3-198.9,519.1-215.1,519.1z"/>
				<path id="XMLID_992_" class="st3" d="M-261.4,554.1c22.3,0,40.4-18.1,40.4-40.4C-243.3,513.6-261.4,531.7-261.4,554.1z"/>
				<path id="XMLID_991_" class="st4" d="M-228.2,587.7c0-14.4-11.7-26.1-26.1-26.1C-254.3,576-242.6,587.7-228.2,587.7z"/>
				<path id="XMLID_990_" class="st3" d="M-223.9,1088.2c-19.2,0-34.7,15.5-34.7,34.7C-239.4,1122.9-223.9,1107.4-223.9,1088.2z"/>
				<path id="XMLID_989_" class="st3" d="M-428.2,639.2c-18.9,0-34.3,15.4-34.3,34.3C-443.6,673.5-428.2,658.1-428.2,639.2z"/>
				<path id="XMLID_988_" class="st3" d="M-416.6,644.3c0,13.3,10.8,24.1,24.1,24.1C-392.5,655.1-403.3,644.3-416.6,644.3z"/>
				<path id="XMLID_987_" class="st2" d="M-393.5,686.2c-12.2,0-22,9.9-22,22.1C-403.4,708.2-393.5,698.3-393.5,686.2z"/>
				<path id="XMLID_986_" class="st3" d="M355.6,998.8c17.4,0,31.4-14.1,31.4-31.4C369.7,967.3,355.6,981.4,355.6,998.8z"/>
				<path id="XMLID_985_" class="st2" d="M398.9,969.8c0,14.7,11.9,26.5,26.5,26.5C425.4,981.7,413.6,969.8,398.9,969.8z"/>
				<path id="XMLID_984_" class="st3" d="M353,1005.5c0,20.3,16.5,36.8,36.7,36.8C389.7,1022,373.3,1005.5,353,1005.5z"/>
				<path id="XMLID_983_" class="st3" d="M28.7,844.6c0,17.6,14.3,31.9,31.8,31.9C60.5,858.9,46.3,844.6,28.7,844.6z"/>
				<path id="XMLID_982_" class="st4" d="M225.4,802.3c-19.2,0-34.7,15.5-34.7,34.7C209.8,837.1,225.4,821.5,225.4,802.3z"/>
				<path id="XMLID_981_" class="st3" d="M-63.2,1090.8c-16.2,0-29.4,13.2-29.4,29.4C-76.4,1120.3-63.2,1107.1-63.2,1090.8z"/>
				<path id="XMLID_980_" class="st3" d="M-89.5,1053.1c0,12.9,10.4,23.3,23.3,23.3C-66.3,1063.5-76.7,1053.1-89.5,1053.1z"/>
				<path id="XMLID_979_" class="st2" d="M-134.7,1080.6c17.6,0,31.8-14.3,31.8-31.9C-120.4,1048.8-134.7,1063-134.7,1080.6z"/>
				<path id="XMLID_978_" class="st2" d="M-144.9,1090.8c-16.2,0-29.4,13.2-29.4,29.4C-158,1120.3-144.9,1107.1-144.9,1090.8z"/>
				<path id="XMLID_977_" class="st4" d="M-129.8,1094.5c0,12.2,9.9,22.1,22,22.1C-107.7,1104.4-117.6,1094.5-129.8,1094.5z"/>
				<path id="XMLID_976_" class="st3" d="M-466.6,922.6c-21.6,0-39.2,17.6-39.2,39.2C-484.1,961.8-466.6,944.3-466.6,922.6z"/>
				<path id="XMLID_975_" class="st3" d="M-460.5,927.1c0,16.7,13.5,30.2,30.2,30.2C-430.3,940.6-443.8,927.1-460.5,927.1z"/>
				<path id="XMLID_974_" class="st3" d="M-56.3,1086.4c0,21.2,17.2,38.4,38.4,38.4C-17.9,1103.5-35.1,1086.4-56.3,1086.4z"/>
				<path id="XMLID_973_" class="st3" d="M-54.2,1081.9c18.9,0,34.3-15.4,34.3-34.3C-38.9,1047.6-54.2,1062.9-54.2,1081.9z"/>
				<path id="XMLID_972_" class="st3" d="M-421.5,966.1c0,18.7,15.2,33.9,33.9,33.9C-387.6,981.3-402.8,966.1-421.5,966.1z"/>
				<path id="XMLID_971_" class="st3" d="M-461.3,1008c0,17.6,14.3,31.9,31.8,31.9C-429.4,1022.2-443.7,1008-461.3,1008z"/>
				<path id="XMLID_970_" class="st2" d="M-456.4,749.1c12.2,0,22-9.9,22-22.1C-446.5,727-456.4,736.9-456.4,749.1z"/>
				<path id="XMLID_969_" class="st3" d="M-468,679c-20.1,0-36.3,16.3-36.3,36.3C-484.3,715.4-468,699.1-468,679z"/>
				<path id="XMLID_968_" class="st3" d="M-462.5,680c0,18.9,15.4,34.3,34.3,34.3C-428.2,695.4-443.6,680-462.5,680z"/>
				<path id="XMLID_967_" class="st3" d="M-507.6,310.3c-21.4,0-38.8,17.4-38.8,38.8C-525,349.1-507.6,331.7-507.6,310.3z"/>
				<path id="XMLID_966_" class="st2" d="M-513.4,302.5c0-15.1-12.2-27.4-27.4-27.4C-540.7,290.3-528.5,302.5-513.4,302.5z"/>
				<path id="XMLID_965_" class="st3" d="M-89.7,627.4c13.1,0,23.7-10.6,23.7-23.7C-79.1,603.7-89.7,614.3-89.7,627.4z"/>
				<path id="XMLID_964_" class="st2" d="M-53.2,599.4c0,17.8,14.4,32.3,32.3,32.3C-20.9,613.8-35.4,599.4-53.2,599.4z"/>
				<path id="XMLID_962_" class="st4" d="M-386.4,760.7c-20.1,0-36.3,16.3-36.3,36.3C-402.6,797-386.4,780.8-386.4,760.7z"/>
				<path id="XMLID_961_" class="st3" d="M23.4,839.3c0-21.7-17.5-39.2-39.2-39.2C-15.8,821.7,1.7,839.3,23.4,839.3z"/>
				<path id="XMLID_960_" class="st3" d="M-10.5,793.2c15.8,0,28.6-12.8,28.6-28.6C2.3,764.6-10.5,777.4-10.5,793.2z"/>
				<path id="XMLID_959_" class="st4" d="M33.2,767.4c0,12.6,10.2,22.9,22.9,22.9C56,777.7,45.8,767.4,33.2,767.4z"/>
				<path id="XMLID_954_" class="st3" d="M26.8,837.5c19.6,0,35.5-15.9,35.5-35.5C42.7,801.9,26.8,817.8,26.8,837.5z"/>
				<path id="XMLID_953_" class="st3" d="M-380.2,917.9c18.3,0,33.1-14.8,33.1-33.1C-365.4,884.8-380.2,899.6-380.2,917.9z"/>
				<path id="XMLID_952_" class="st3" d="M-513.8,547.1c0-14.7-11.9-26.5-26.5-26.5C-540.3,535.2-528.4,547.1-513.8,547.1z"/>
				<path id="XMLID_951_" class="st3" d="M-504,475.2c0,19.6,15.9,35.5,35.5,35.5C-468.4,491.2-484.3,475.2-504,475.2z"/>
				<path id="XMLID_950_" class="st4" d="M-216.3,999c17.6,0,31.8-14.3,31.8-31.9C-202.1,967.1-216.3,981.4-216.3,999z"/>
				<path id="XMLID_949_" class="st3" d="M-176.5,632.5c18.7,0,33.9-15.2,33.9-33.9C-161.3,598.6-176.5,613.7-176.5,632.5z"/>
				<path id="XMLID_948_" class="st3" d="M-215.9,600c0,17.1,13.9,31,31,31C-184.9,613.9-198.8,600-215.9,600z"/>
				<path id="XMLID_947_" class="st3" d="M-378,1009.6c0,15.8,12.8,28.6,28.6,28.6C-349.4,1022.4-362.2,1009.6-378,1009.6z"/>
				<path id="XMLID_946_" class="st3" d="M-384.1,1085.1c22.5,0,40.8-18.3,40.8-40.8C-365.8,1044.3-384.1,1062.6-384.1,1085.1z"/>
				<path id="XMLID_945_" class="st2" d="M-385.6,1004.9c-21,0-38,17-38,38C-402.6,1042.9-385.6,1025.9-385.6,1004.9z"/>
				<path id="XMLID_944_" class="st4" d="M-423.3,474.2c0,20.7,16.8,37.6,37.6,37.6C-385.8,491-402.6,474.2-423.3,474.2z"/>
				<path id="XMLID_915_" class="st4" d="M-433.1,480.8c-13.5,0-24.5,11-24.5,24.5C-444.1,505.3-433.1,494.3-433.1,480.8z"/>
				<path id="XMLID_912_" class="st3" d="M-385.6,514.9c-21,0-38,17-38,38C-402.6,552.8-385.6,535.8-385.6,514.9z"/>
				<path id="XMLID_877_" class="st2" d="M-469.3,761.9c-18.7,0-33.9,15.2-33.9,33.9C-484.4,795.8-469.3,780.6-469.3,761.9z"/>
				<path id="XMLID_559_" class="st3" d="M-538.1,767.8c0,12.2,9.9,22.1,22,22.1C-516,777.7-525.9,767.8-538.1,767.8z"/>
				<path id="XMLID_558_" class="st2" d="M-173.2,384.2c15.1,0,27.4-12.2,27.4-27.4C-161,356.8-173.2,369.1-173.2,384.2z"/>
				<path id="XMLID_554_" class="st3" d="M-149.1,421.8c0-11.5-9.3-20.8-20.8-20.8C-170,412.4-160.6,421.8-149.1,421.8z"/>
				<path id="XMLID_552_" class="st2" d="M-132.4,425c15.1,0,27.4-12.2,27.4-27.4C-120.2,397.7-132.4,409.9-132.4,425z"/>
			</g>
		</g>
	</g>
</g>
<g id="Layer_2">
</g>
</svg>
